<svg xmlns="http://www.w3.org/2000/svg" width="1200" height="1600" viewBox="0 0 1200 1600"><defs><style>text{font-family:-apple-system,BlinkMacSystemFont,"Segoe UI","PingFang SC","Microsoft YaHei",Arial,sans-serif;dominant-baseline:alphabetic}</style></defs><rect width="1200" height="1600" fill="#F6F8FB" /><rect x="0" y="0" width="1200" height="130" fill="#172033" /><text x="60" y="76" font-size="40" font-weight="900" fill="#FFFFFF">高考志愿方案看板</text><text x="60" y="114" font-size="22" font-weight="500" fill="#F2F4F7">江苏 2026 物理类 | 位次约 34500 | 模拟稿</text><rect x="60" y="174" width="1080" height="132" rx="18" fill="#FFFFFF" stroke="#DDE5EF" /><text x="92" y="220" font-size="18" font-weight="600" fill="#64748B">省份</text><text x="184" y="220" font-size="22" font-weight="800" fill="#172033">江苏</text><text x="432" y="220" font-size="18" font-weight="600" fill="#64748B">年份</text><text x="524" y="220" font-size="22" font-weight="800" fill="#172033">2026</text><text x="772" y="220" font-size="18" font-weight="600" fill="#64748B">科类</text><text x="864" y="220" font-size="22" font-weight="800" fill="#172033">物理类 物化生</text><text x="92" y="268" font-size="18" font-weight="600" fill="#64748B">分数/位次</text><text x="184" y="268" font-size="22" font-weight="800" fill="#172033">608 / 约34500名</text><text x="432" y="268" font-size="18" font-weight="600" fill="#64748B">预算</text><text x="524" y="268" font-size="22" font-weight="800" fill="#172033">公办普通学费优先</text><text x="772" y="268" font-size="18" font-weight="600" fill="#64748B">策略</text><text x="864" y="268" font-size="22" font-weight="800" fill="#172033">均衡偏稳</text><text x="60" y="358" font-size="26" font-weight="800" fill="#172033">总览状态</text><rect x="60" y="386" width="255" height="150" rx="20" fill="#FFF7E6" stroke="#DDE5EF" /><text x="84" y="430" font-size="24" font-weight="800" fill="#172033">录取安全</text><rect x="84" y="446" width="94" height="34" rx="17" fill="#FFF7E6" /><text x="131" y="470" text-anchor="middle" font-size="18" font-weight="700" fill="#D97706">黄灯</text><text x="84" y="502" font-size="20" font-weight="500" fill="#172033">有方案，但保底看专业组下限</text><rect x="340" y="386" width="255" height="150" rx="20" fill="#EAF8EF" stroke="#DDE5EF" /><text x="364" y="430" font-size="24" font-weight="800" fill="#172033">专业匹配</text><rect x="364" y="446" width="94" height="34" rx="17" fill="#EAF8EF" /><text x="411" y="470" text-anchor="middle" font-size="18" font-weight="700" fill="#16A34A">绿灯</text><text x="364" y="502" font-size="20" font-weight="500" fill="#172033">电子信息/电气/自动化适配</text><rect x="620" y="386" width="255" height="150" rx="20" fill="#FFF7E6" stroke="#DDE5EF" /><text x="644" y="430" font-size="24" font-weight="800" fill="#172033">城市偏好</text><rect x="644" y="446" width="94" height="34" rx="17" fill="#FFF7E6" /><text x="691" y="470" text-anchor="middle" font-size="18" font-weight="700" fill="#D97706">黄灯</text><text x="644" y="502" font-size="20" font-weight="500" fill="#172033">热门城市会压缩选择空间</text><rect x="900" y="386" width="255" height="150" rx="20" fill="#FEECEC" stroke="#DDE5EF" /><text x="924" y="430" font-size="24" font-weight="800" fill="#172033">最大风险</text><rect x="924" y="446" width="94" height="34" rx="17" fill="#FEECEC" /><text x="971" y="470" text-anchor="middle" font-size="18" font-weight="700" fill="#DC2626">红灯</text><text x="924" y="502" font-size="20" font-weight="500" fill="#172033">服从调剂进排斥专业</text><text x="60" y="598" font-size="26" font-weight="800" fill="#172033">候选池分层</text><rect x="60" y="626" width="520" height="332" rx="18" fill="#FFFFFF" stroke="#DDE5EF" /><text x="88" y="672" font-size="18" font-weight="700" fill="#64748B">层级</text><text x="166" y="672" font-size="18" font-weight="700" fill="#64748B">候选方向</text><text x="406" y="672" font-size="18" font-weight="700" fill="#64748B">风险</text><line x1="88" y1="690" x2="552" y2="690" stroke="#DDE5EF" /><text x="88" y="714" font-size="24" font-weight="800" fill="#2563EB">冲</text><text x="166" y="714" font-size="20" font-weight="600" fill="#172033">热门城市强专业</text><text x="406" y="714" font-size="20" font-weight="700" fill="#64748B">黄/红</text><line x1="88" y1="744" x2="552" y2="744" stroke="#DDE5EF" /><text x="88" y="768" font-size="24" font-weight="800" fill="#2563EB">稳</text><text x="166" y="768" font-size="20" font-weight="600" fill="#172033">公办工科主线</text><text x="406" y="768" font-size="20" font-weight="700" fill="#64748B">黄/绿</text><line x1="88" y1="798" x2="552" y2="798" stroke="#DDE5EF" /><text x="88" y="822" font-size="24" font-weight="800" fill="#2563EB">保</text><text x="166" y="822" font-size="20" font-weight="600" fill="#172033">真可接受保底</text><text x="406" y="822" font-size="20" font-weight="700" fill="#64748B">绿</text><line x1="88" y1="852" x2="552" y2="852" stroke="#DDE5EF" /><text x="88" y="876" font-size="24" font-weight="800" fill="#2563EB">观察</text><text x="166" y="876" font-size="20" font-weight="600" fill="#172033">低估机会</text><text x="406" y="876" font-size="20" font-weight="700" fill="#64748B">灰/黄</text><text x="620" y="598" font-size="26" font-weight="800" fill="#172033">专业路径</text><rect x="620" y="626" width="520" height="332" rx="18" fill="#FFFFFF" stroke="#DDE5EF" /><text x="648" y="672" font-size="18" font-weight="700" fill="#64748B">方向</text><text x="830" y="672" font-size="18" font-weight="700" fill="#64748B">匹配</text><text x="930" y="672" font-size="18" font-weight="700" fill="#64748B">建议</text><line x1="648" y1="690" x2="1112" y2="690" stroke="#DDE5EF" /><text x="648" y="714" font-size="22" font-weight="800" fill="#172033">计算机/AI</text><text x="830" y="714" font-size="20" font-weight="800" fill="#2563EB">中-高</text><text x="930" y="714" font-size="19" font-weight="500" fill="#172033">可冲，不做唯一主线</text><line x1="648" y1="744" x2="1112" y2="744" stroke="#DDE5EF" /><text x="648" y="768" font-size="22" font-weight="800" fill="#172033">电子信息</text><text x="830" y="768" font-size="20" font-weight="800" fill="#2563EB">高</text><text x="930" y="768" font-size="19" font-weight="500" fill="#172033">主线</text><line x1="648" y1="798" x2="1112" y2="798" stroke="#DDE5EF" /><text x="648" y="822" font-size="22" font-weight="800" fill="#172033">电气</text><text x="830" y="822" font-size="20" font-weight="800" fill="#2563EB">高</text><text x="930" y="822" font-size="19" font-weight="500" fill="#172033">主线</text><line x1="648" y1="852" x2="1112" y2="852" stroke="#DDE5EF" /><text x="648" y="876" font-size="22" font-weight="800" fill="#172033">自动化</text><text x="830" y="876" font-size="20" font-weight="800" fill="#2563EB">中-高</text><text x="930" y="876" font-size="19" font-weight="500" fill="#172033">主线备选</text><text x="60" y="1020" font-size="26" font-weight="800" fill="#172033">风险热力图</text><rect x="60" y="1048" width="1080" height="250" rx="18" fill="#FFFFFF" stroke="#DDE5EF" /><text x="88" y="1092" font-size="18" font-weight="700" fill="#64748B">风险项</text><text x="392" y="1092" font-size="18" font-weight="700" fill="#64748B">等级</text><text x="526" y="1092" font-size="18" font-weight="700" fill="#64748B">处理动作</text><line x1="88" y1="1110" x2="1112" y2="1110" stroke="#DDE5EF" /><text x="88" y="1136" font-size="22" font-weight="800" fill="#172033">专业组下限</text><rect x="382" y="1111" width="94" height="34" rx="17" fill="#FEECEC" /><text x="429" y="1135" text-anchor="middle" font-size="18" font-weight="700" fill="#DC2626">高</text><text x="526" y="1136" font-size="20" font-weight="500" fill="#172033">逐组核验，不合格不服从</text><line x1="88" y1="1158" x2="1112" y2="1158" stroke="#DDE5EF" /><text x="88" y="1184" font-size="22" font-weight="800" fill="#172033">招生计划变化</text><rect x="382" y="1159" width="94" height="34" rx="17" fill="#FFF7E6" /><text x="429" y="1183" text-anchor="middle" font-size="18" font-weight="700" fill="#D97706">中</text><text x="526" y="1184" font-size="20" font-weight="500" fill="#172033">查当年计划和计划变更</text><line x1="88" y1="1206" x2="1112" y2="1206" stroke="#DDE5EF" /><text x="88" y="1232" font-size="22" font-weight="800" fill="#172033">热门专业溢价</text><rect x="382" y="1207" width="94" height="34" rx="17" fill="#FFF7E6" /><text x="429" y="1231" text-anchor="middle" font-size="18" font-weight="700" fill="#D97706">中</text><text x="526" y="1232" font-size="20" font-weight="500" fill="#172033">给同层次替代</text><line x1="88" y1="1254" x2="1112" y2="1254" stroke="#DDE5EF" /><text x="88" y="1280" font-size="22" font-weight="800" fill="#172033">高价项目</text><rect x="382" y="1255" width="94" height="34" rx="17" fill="#FEECEC" /><text x="429" y="1279" text-anchor="middle" font-size="18" font-weight="700" fill="#DC2626">高</text><text x="526" y="1280" font-size="20" font-weight="500" fill="#172033">超预算则直接剔除</text><text x="60" y="1360" font-size="26" font-weight="800" fill="#172033">待核验与下一步</text><rect x="60" y="1388" width="1080" height="128" rx="18" fill="#FFFFFF" stroke="#DDE5EF" /><circle cx="88" cy="1432" r="8" fill="#D97706" /><text x="106" y="1424" font-size="18" font-weight="600" fill="#172033">当年一分一段</text><circle cx="288" cy="1432" r="8" fill="#D97706" /><text x="306" y="1424" font-size="18" font-weight="600" fill="#172033">当年招生计划</text><circle cx="488" cy="1432" r="8" fill="#D97706" /><text x="506" y="1424" font-size="18" font-weight="600" fill="#172033">专业组内全部专业</text><circle cx="688" cy="1432" r="8" fill="#D97706" /><text x="706" y="1424" font-size="18" font-weight="600" fill="#172033">招生章程/学费/</text><text x="706" y="1446" font-size="18" font-weight="600" fill="#172033">校区</text><text x="88" y="1492" font-size="22" font-weight="800" fill="#2563EB">下一步：先核验专业组下限，再排最终志愿表。</text><text x="60" y="1562" font-size="18" font-weight="500" fill="#64748B">仅作决策支持，不构成录取承诺；最终以省级考试院和高校官方信息为准。</text></svg>