<svg xmlns="http://www.w3.org/2000/svg" width="1600" height="1000" viewBox="0 0 1600 1000">
<defs>
  <filter id="shadow" x="-20%" y="-20%" width="140%" height="140%">
    <feDropShadow dx="0" dy="12" stdDeviation="18" flood-color="#0f172a" flood-opacity="0.10"/>
  </filter>
  <filter id="softShadow" x="-20%" y="-20%" width="140%" height="140%">
    <feDropShadow dx="0" dy="8" stdDeviation="10" flood-color="#0f172a" flood-opacity="0.08"/>
  </filter>
  <linearGradient id="heroGrad" x1="0" y1="0" x2="1" y2="1">
    <stop offset="0%" stop-color="#0B1220"/>
    <stop offset="54%" stop-color="#111827"/>
    <stop offset="100%" stop-color="#172554"/>
  </linearGradient>
  <linearGradient id="blueGrad" x1="0" y1="0" x2="1" y2="1">
    <stop offset="0%" stop-color="#2563EB"/>
    <stop offset="100%" stop-color="#60A5FA"/>
  </linearGradient>
  <linearGradient id="panelGrad" x1="0" y1="0" x2="0" y2="1">
    <stop offset="0%" stop-color="#FFFFFF"/>
    <stop offset="100%" stop-color="#F8FAFC"/>
  </linearGradient>
  <pattern id="dotGrid" width="32" height="32" patternUnits="userSpaceOnUse">
    <circle cx="2" cy="2" r="1.5" fill="#93C5FD" opacity="0.28"/>
  </pattern>
</defs>
<rect x="0" y="0" width="1600" height="1000" fill="#FFFFFF" stroke="none" stroke-width="1"/>
<rect x="0" y="0" width="1600" height="1000" fill="#F8FAFC" stroke="none" stroke-width="1"/>
<text x="80" y="105" font-family="Noto Sans CJK SC, PingFang SC, Microsoft YaHei, Arial, sans-serif" font-size="46" font-weight="900" fill="#172033" text-anchor="start">README 展示卡片</text>
<text x="82" y="150" font-family="Noto Sans CJK SC, PingFang SC, Microsoft YaHei, Arial, sans-serif" font-size="24" font-weight="500" fill="#64748B" text-anchor="start">适合放在仓库介绍区：说明功能，不假装能替人决定人生。</text>
<rect x="80" y="220" width="680" height="260" rx="30" fill="#FFFFFF" stroke="#E2E8F0" stroke-width="1" filter="url(#softShadow)"/>
<circle cx="160" cy="303" r="55" fill="#2563EB" stroke="none" stroke-width="1" opacity="0.12"/>
<g transform="translate(100,240)"><path d="M 34 22 L 86 22 L 86 82 L 34 82 Z M 46 40 L 74 40 M 46 56 L 74 56 M 46 72 L 62 72" fill="none" stroke="#2563EB" stroke-width="6" stroke-linecap="round" stroke-linejoin="round"/></g>
<text x="250" y="302" font-family="Noto Sans CJK SC, PingFang SC, Microsoft YaHei, Arial, sans-serif" font-size="34" font-weight="900" fill="#172033" text-anchor="start">问诊输入</text>
<text x="250" y="348" font-family="Noto Sans CJK SC, PingFang SC, Microsoft YaHei, Arial, sans-serif" font-size="23" font-weight="500" fill="#64748B" text-anchor="start">
<tspan x="250" dy="0">把省份、年份、选科、位次、预算、排斥项先问清</tspan>
<tspan x="250" dy="32.199999999999996">楚。</tspan>
</text>
<rect x="250" y="418" width="158" height="38" rx="19" fill="#2563EB" stroke="#2563EB" stroke-width="1" opacity="0.11"/>
<text x="329" y="444" font-family="Noto Sans CJK SC, PingFang SC, Microsoft YaHei, Arial, sans-serif" font-size="17" font-weight="900" fill="#2563EB" text-anchor="middle">README-ready</text>
<rect x="840" y="220" width="680" height="260" rx="30" fill="#FFFFFF" stroke="#E2E8F0" stroke-width="1" filter="url(#softShadow)"/>
<circle cx="920" cy="303" r="55" fill="#16A34A" stroke="none" stroke-width="1" opacity="0.12"/>
<g transform="translate(860,240)"><path d="M 28 54 L 54 28 L 80 54 L 80 86 L 28 86 Z M 42 86 L 42 58 L 66 58 L 66 86" fill="none" stroke="#16A34A" stroke-width="6" stroke-linecap="round" stroke-linejoin="round"/></g>
<text x="1010" y="302" font-family="Noto Sans CJK SC, PingFang SC, Microsoft YaHei, Arial, sans-serif" font-size="34" font-weight="900" fill="#172033" text-anchor="start">官方核验</text>
<text x="1010" y="348" font-family="Noto Sans CJK SC, PingFang SC, Microsoft YaHei, Arial, sans-serif" font-size="23" font-weight="500" fill="#64748B" text-anchor="start">
<tspan x="1010" dy="0">所有候选项回到省考试院、招生计划和招生章程。</tspan>
<tspan x="1010" dy="32.199999999999996"></tspan>
</text>
<rect x="1010" y="418" width="158" height="38" rx="19" fill="#16A34A" stroke="#16A34A" stroke-width="1" opacity="0.11"/>
<text x="1089" y="444" font-family="Noto Sans CJK SC, PingFang SC, Microsoft YaHei, Arial, sans-serif" font-size="17" font-weight="900" fill="#16A34A" text-anchor="middle">README-ready</text>
<rect x="80" y="550" width="680" height="260" rx="30" fill="#FFFFFF" stroke="#E2E8F0" stroke-width="1" filter="url(#softShadow)"/>
<circle cx="160" cy="633" r="55" fill="#D97706" stroke="none" stroke-width="1" opacity="0.12"/>
<g transform="translate(100,570)"><path d="M 26 30 L 90 30 L 90 80 L 26 80 Z M 38 44 L 78 44 M 38 58 L 70 58 M 38 72 L 82 72" fill="none" stroke="#D97706" stroke-width="6" stroke-linecap="round" stroke-linejoin="round"/></g>
<text x="250" y="632" font-family="Noto Sans CJK SC, PingFang SC, Microsoft YaHei, Arial, sans-serif" font-size="34" font-weight="900" fill="#172033" text-anchor="start">候选池审计</text>
<text x="250" y="678" font-family="Noto Sans CJK SC, PingFang SC, Microsoft YaHei, Arial, sans-serif" font-size="23" font-weight="500" fill="#64748B" text-anchor="start">
<tspan x="250" dy="0">检查重复、弱信源、保底厚度、专业组下限风险。</tspan>
<tspan x="250" dy="32.199999999999996"></tspan>
</text>
<rect x="250" y="748" width="158" height="38" rx="19" fill="#D97706" stroke="#D97706" stroke-width="1" opacity="0.11"/>
<text x="329" y="774" font-family="Noto Sans CJK SC, PingFang SC, Microsoft YaHei, Arial, sans-serif" font-size="17" font-weight="900" fill="#D97706" text-anchor="middle">README-ready</text>
<rect x="840" y="550" width="680" height="260" rx="30" fill="#FFFFFF" stroke="#E2E8F0" stroke-width="1" filter="url(#softShadow)"/>
<circle cx="920" cy="633" r="55" fill="#DC2626" stroke="none" stroke-width="1" opacity="0.12"/>
<g transform="translate(860,570)"><path d="M 30 24 L 78 24 L 92 38 L 92 88 L 30 88 Z M 78 24 L 78 38 L 92 38" fill="none" stroke="#DC2626" stroke-width="6" stroke-linecap="round" stroke-linejoin="round"/></g>
<text x="1010" y="632" font-family="Noto Sans CJK SC, PingFang SC, Microsoft YaHei, Arial, sans-serif" font-size="34" font-weight="900" fill="#172033" text-anchor="start">SVG 交付</text>
<text x="1010" y="678" font-family="Noto Sans CJK SC, PingFang SC, Microsoft YaHei, Arial, sans-serif" font-size="23" font-weight="500" fill="#64748B" text-anchor="start">
<tspan x="1010" dy="0">生成一页式看板、热力图和最终复核清单。</tspan>
<tspan x="1010" dy="32.199999999999996"></tspan>
</text>
<rect x="1010" y="748" width="158" height="38" rx="19" fill="#DC2626" stroke="#DC2626" stroke-width="1" opacity="0.11"/>
<text x="1089" y="774" font-family="Noto Sans CJK SC, PingFang SC, Microsoft YaHei, Arial, sans-serif" font-size="17" font-weight="900" fill="#DC2626" text-anchor="middle">README-ready</text>
<rect x="80" y="895" width="1440" height="50" rx="25" fill="#172033" stroke="none" stroke-width="1"/>
<text x="800" y="928" font-family="Noto Sans CJK SC, PingFang SC, Microsoft YaHei, Arial, sans-serif" font-size="22" font-weight="700" fill="#CBD5E1" text-anchor="middle">gaokao-guide · decision support, not admission promise</text>
</svg>